<svg width="125" height="154" viewBox="0 0 125 154" fill="none" xmlns="http://www.w3.org/2000/svg">
<path d="M62.5 0C64.5888 0 66.4303 0.856938 68.0244 2.57081L122.526 57.4701C123.406 58.3547 124.038 59.2393 124.423 60.1239C124.808 61.0637 125 62.0312 125 63.0264C125 65.072 124.313 66.7859 122.939 68.168C121.619 69.6055 119.943 70.3242 117.909 70.3242C116.92 70.3242 115.958 70.1307 115.023 69.7437C114.144 69.4119 113.374 68.9144 112.714 68.2509L93.9149 49.6747L64.0666 16.8347L68.1893 15.0932L69.8384 41.7964V146.702C69.8384 148.858 69.1513 150.6 67.777 151.927C66.4028 153.309 64.6438 154 62.5 154C60.3562 154 58.5972 153.309 57.223 151.927C55.8487 150.6 55.1616 148.858 55.1616 146.702L55.1616 41.7964L56.8107 15.0932L60.8509 16.8347L31.0851 49.6747L12.2856 68.2509C11.626 68.9144 10.8289 69.4119 9.89445 69.7437C9.01495 70.1307 8.08048 70.3242 7.09103 70.3242C5.05717 70.3242 3.38061 69.6055 2.06135 68.168C0.687118 66.7859 0 65.072 0 63.0264C0 61.0361 0.76957 59.2393 2.30871 57.636L56.9756 2.57081C58.5697 0.856938 60.4112 0 62.5 0Z" fill="#4FFF4F"/>
</svg>
